<?xml version="1.0" encoding="utf-8"?>
<svg viewBox="-54.226 -158.474 1000.323 764.278" xmlns="http://www.w3.org/2000/svg">
  <title>aircraft</title>
  <polygon points="205.97 95.122 518.22 182.692 568.55 172.172 427.5 108.722 383.42 59.402 205.97 95.122" fill="#3f3d56" style="stroke: rgb(255, 255, 255); vector-effect: non-scaling-stroke;" transform="matrix(-0.965946, 0.258743, -0.258743, -0.965946, 792.652385, 137.770927)"/>
  <path d="M 884.136 114.404 C 874.366 110.804 857.206 107.844 837.346 105.464 C 783.346 98.984 709.346 96.684 709.346 96.684 C 709.346 96.684 328.936 65.134 43.826 182.474 C 43.826 182.474 2.356 204.214 40.826 233.474 C 46.75 237.846 53.048 241.688 59.646 244.954 L 60.116 245.424 C 64.492 249.468 69.221 253.113 74.246 256.314 C 89.016 265.864 113.956 277.184 144.316 272.054 L 893.136 150.944 C 893.136 150.944 920.486 127.834 884.136 114.404 Z" fill="#3f3d56" style="stroke: rgb(255, 255, 255); vector-effect: non-scaling-stroke;" transform="matrix(-0.965946, 0.258743, -0.258743, -0.965946, 959.058579, 239.935297)"/>
  <path d="M -28.671 204.512 L 128.089 315.732 L 197.179 303.782 L 129.529 186.162 C 129.529 186.162 -26.871 184.912 -28.671 204.512 Z" fill="#3f3d56" style="stroke: rgb(255, 255, 255); vector-effect: non-scaling-stroke;" transform="matrix(-0.965946, 0.258743, -0.258743, -0.965946, 230.567631, 471.532391)"/>
  <path d="M 907.046 136.152 C 853.046 129.672 779.046 127.372 779.046 127.372 C 779.046 127.372 398.636 95.822 113.526 213.162 C 113.526 213.162 72.056 234.902 110.526 264.162 L 110.656 263.622 C 110.656 263.622 172.176 222.042 466.116 187.332 L 907.046 136.152 Z" fill="#0066ff" style="stroke: rgb(255, 255, 255); vector-effect: non-scaling-stroke;" transform="matrix(-0.965946, 0.258743, -0.258743, -0.965946, 1034.325354, 251.545427)"/>
  <path d="M 4.953 401.343 L 144.553 344.343 L 179.623 348.233 L 96.123 410.993 C 96.123 410.993 -4.877 432.543 4.953 401.343 Z" fill="#3f3d56" style="stroke: rgb(255, 255, 255); vector-effect: non-scaling-stroke;" transform="matrix(-0.965946, 0.258743, -0.258743, -0.965946, 279.428266, 725.81114)"/>
  <path d="M 823.439 13.525 C 816.779 13.415 801.519 24.585 792.029 32.105 C 796.405 36.149 801.134 39.794 806.159 42.995 C 813.809 37.125 827.419 27.625 834.989 27.995 C 845.919 28.445 833.469 13.705 823.439 13.525 Z" style="fill: rgb(0, 102, 255); stroke: rgb(255, 255, 255); vector-effect: non-scaling-stroke;" transform="matrix(-0.965946, 0.258743, -0.258743, -0.965946, 1610.803992, -155.482976)"/>
  <path d="M 656.661 243.911 L 567.031 239.221 L 315.031 409.141 L 268.251 440.691 L 245.531 456.021 C 288.161 492.021 462.091 442.371 462.091 442.371 C 465.421 439.561 466.481 434.891 466.331 429.731 C 466.041 420.071 461.501 408.731 459.751 404.651 C 459.331 403.651 459.071 403.121 459.071 403.121 L 656.661 243.911 Z" fill="#3f3d56" style="stroke: rgb(255, 255, 255); vector-effect: non-scaling-stroke;" transform="matrix(-0.965946, 0.258743, -0.258743, -0.965946, 978.469025, 579.556845)"/>
</svg>